{
	"asset":{
		"version":"2.0",
		"generator":"Maxon Cinema 4D 2023.1.3 (#200000219)"
	},
	"scenes":[{
		"nodes":[0,
		1,
		2,
		3]
	}],
	"nodes":[{
		"name":"OctaneCamera",
		"camera":0,
		"translation":[-55.81193542480469,
		42.529930114746097,
		47.48338317871094],
		"rotation":[-0.237930029630661,
		-0.3929315209388733,
		-0.10600940883159638,
		0.8819048404693604],
		"scale":[1.0,
		1.0,
		1.0]
	},
	{
		"name":"底座",
		"translation":[0.4080989360809326,
		0.10513488948345185,
		-0.10306557267904282],
		"rotation":[0.0,
		0.0,
		0.0,
		-1.0],
		"scale":[1.0,
		1.0,
		1.0],
		"children":[4,
		5,
		6,
		7,
		8]
	},
	{
		"name":"OctaneCamera",
		"camera":1,
		"translation":[-9.189251899719239,
		6.212607383728027,
		5.457253456115723],
		"rotation":[-0.2060352861881256,
		-0.419720858335495,
		-0.09844186902046204,
		0.8784606456756592],
		"scale":[1.0,
		1.0,
		1.0]
	},
	{
		"name":"方块",
		"translation":[-0.0002374699542997405,
		0.6855567097663879,
		0.001180277206003666],
		"rotation":[0.0,
		-0.7071067690849304,
		0.0,
		0.7071067690849304],
		"scale":[1.0,
		1.0,
		1.0],
		"children":[9,
		10,
		11,
		12,
		13,
		14,
		15,
		16]
	},
	{
		"name":"立方体.4",
		"mesh":0,
		"translation":[-1.146652340888977,
		-0.049643971025943759,
		0.4403085708618164],
		"rotation":[0.0,
		0.0,
		0.0,
		-1.0],
		"scale":[1.0,
		1.0,
		1.0]
	},
	{
		"name":"立方体.3",
		"mesh":1,
		"translation":[-2.247122049331665,
		0.41847851872444155,
		6.9030985832214359],
		"rotation":[0.0,
		0.0,
		0.0,
		-1.0],
		"scale":[1.0,
		1.0,
		1.0]
	},
	{
		"name":"挤压",
		"translation":[-1.6561073064804078,
		-0.09089245647192002,
		-3.0298807621002199],
		"rotation":[0.0,
		0.0,
		0.0,
		-1.0],
		"scale":[1.0,
		1.0,
		1.0],
		"children":[17]
	},
	{
		"name":"平面",
		"mesh":2,
		"translation":[-0.4080989360809326,
		-0.10243435204029083,
		0.10306557267904282],
		"rotation":[0.0,
		0.0,
		0.0,
		-1.0],
		"scale":[1.0,
		1.0,
		1.0]
	},
	{
		"name":"立方体",
		"mesh":3,
		"translation":[-0.4080989360809326,
		0.031354062259197238,
		0.9792907238006592],
		"rotation":[0.0,
		0.0,
		0.0,
		-1.0],
		"scale":[1.0,
		1.0,
		1.0]
	},
	{
		"name":"立方体 0",
		"mesh":4,
		"translation":[-0.2231753170490265,
		-0.2231753170490265,
		0.2231753170490265],
		"rotation":[0.0,
		0.0,
		0.0,
		-1.0],
		"scale":[1.0,
		1.0,
		1.0]
	},
	{
		"name":"立方体 1",
		"mesh":5,
		"translation":[0.2231753170490265,
		-0.2231753170490265,
		0.2231753170490265],
		"rotation":[0.0,
		0.0,
		0.0,
		-1.0],
		"scale":[1.0,
		1.0,
		1.0]
	},
	{
		"name":"立方体 2",
		"mesh":6,
		"translation":[-0.2231753170490265,
		0.2231753170490265,
		0.2231753170490265],
		"rotation":[0.0,
		0.0,
		0.0,
		-1.0],
		"scale":[1.0,
		1.0,
		1.0]
	},
	{
		"name":"立方体 3",
		"mesh":7,
		"translation":[0.31847965717315676,
		0.3757578134536743,
		0.38059359788894656],
		"rotation":[-0.23031504452228547,
		-0.0901399478316307,
		0.021431494504213334,
		-0.9686952233314514],
		"scale":[1.0,
		1.0,
		1.0]
	},
	{
		"name":"立方体 4",
		"mesh":8,
		"translation":[-0.2231753170490265,
		-0.2231753170490265,
		-0.2231753170490265],
		"rotation":[0.0,
		0.0,
		0.0,
		-1.0],
		"scale":[1.0,
		1.0,
		1.0]
	},
	{
		"name":"立方体 5",
		"mesh":9,
		"translation":[0.2231753170490265,
		-0.2231753170490265,
		-0.2231753170490265],
		"rotation":[0.0,
		0.0,
		0.0,
		-1.0],
		"scale":[1.0,
		1.0,
		1.0]
	},
	{
		"name":"立方体 6",
		"mesh":10,
		"translation":[-0.2231753170490265,
		0.2231753170490265,
		-0.2231753170490265],
		"rotation":[0.0,
		0.0,
		0.0,
		-1.0],
		"scale":[1.0,
		1.0,
		1.0]
	},
	{
		"name":"立方体 7",
		"mesh":11,
		"translation":[0.2231753170490265,
		0.2231753170490265,
		-0.2231753170490265],
		"rotation":[0.0,
		0.0,
		0.0,
		-1.0],
		"scale":[1.0,
		1.0,
		1.0]
	},
	{
		"name":"挤压",
		"mesh":12
	}],
	"meshes":[{
		"name":"立方体.4",
		"primitives":[{
			"attributes":{
				"POSITION":1,
				"NORMAL":2,
				"TEXCOORD_0":3
			},
			"indices":0,
			"material":0
		}]
	},
	{
		"name":"立方体.3",
		"primitives":[{
			"attributes":{
				"POSITION":5,
				"NORMAL":6,
				"TEXCOORD_0":7
			},
			"indices":4,
			"material":1
		}]
	},
	{
		"name":"平面",
		"primitives":[{
			"attributes":{
				"POSITION":9,
				"NORMAL":10,
				"TEXCOORD_0":11
			},
			"indices":8,
			"material":2
		}]
	},
	{
		"name":"立方体",
		"primitives":[{
			"attributes":{
				"POSITION":13,
				"NORMAL":14,
				"TEXCOORD_0":15
			},
			"indices":12,
			"material":3
		}]
	},
	{
		"name":"立方体 0",
		"primitives":[{
			"attributes":{
				"POSITION":17,
				"NORMAL":18,
				"TEXCOORD_0":19
			},
			"indices":16,
			"material":4
		}]
	},
	{
		"name":"立方体 1",
		"primitives":[{
			"attributes":{
				"POSITION":21,
				"NORMAL":22,
				"TEXCOORD_0":23
			},
			"indices":20,
			"material":5
		}]
	},
	{
		"name":"立方体 2",
		"primitives":[{
			"attributes":{
				"POSITION":25,
				"NORMAL":26,
				"TEXCOORD_0":27
			},
			"indices":24,
			"material":6
		}]
	},
	{
		"name":"立方体 3",
		"primitives":[{
			"attributes":{
				"POSITION":29,
				"NORMAL":30,
				"TEXCOORD_0":31
			},
			"indices":28,
			"material":7
		}]
	},
	{
		"name":"立方体 4",
		"primitives":[{
			"attributes":{
				"POSITION":33,
				"NORMAL":34,
				"TEXCOORD_0":35
			},
			"indices":32,
			"material":8
		}]
	},
	{
		"name":"立方体 5",
		"primitives":[{
			"attributes":{
				"POSITION":37,
				"NORMAL":38,
				"TEXCOORD_0":39
			},
			"indices":36,
			"material":9
		}]
	},
	{
		"name":"立方体 6",
		"primitives":[{
			"attributes":{
				"POSITION":41,
				"NORMAL":42,
				"TEXCOORD_0":43
			},
			"indices":40,
			"material":10
		}]
	},
	{
		"name":"立方体 7",
		"primitives":[{
			"attributes":{
				"POSITION":45,
				"NORMAL":46,
				"TEXCOORD_0":47
			},
			"indices":44,
			"material":11
		}]
	},
	{
		"name":"挤压",
		"primitives":[{
			"attributes":{
				"POSITION":49,
				"NORMAL":50,
				"TEXCOORD_0":51
			},
			"indices":48,
			"material":12
		}]
	}],
	"cameras":[{
		"type":"perspective",
		"perspective":{
			"znear":0.009999999776482582,
			"zfar":10000000000.0,
			"aspectRatio":2.0,
			"yfov":0.05998200923204422
		}
	},
	{
		"type":"orthographic",
		"orthographic":{
			"znear":0.0,
			"zfar":10000000000.0,
			"xmag":2.6969668865203859,
			"ymag":1.3484834432601929
		}
	}],
	"accessors":[{
		"bufferView":0,
		"type":"SCALAR",
		"componentType":5123,
		"count":3492,
		"byteOffset":0,
		"min":[0],
		"max":[3491]
	},
	{
		"bufferView":1,
		"type":"VEC3",
		"componentType":5126,
		"count":3492,
		"byteOffset":0,
		"min":[-8.102720260620118,
		-0.05000000074505806,
		-3.7812018394470217],
		"max":[8.102720260620118,
		0.05000000074505806,
		3.7812018394470217]
	},
	{
		"bufferView":1,
		"type":"VEC3",
		"componentType":5126,
		"count":3492,
		"byteOffset":12,
		"min":[-0.9975992441177368,
		-0.9974809885025024,
		-0.9975992441177368],
		"max":[0.9975992441177368,
		0.9974809885025024,
		0.9975992441177368]
	},
	{
		"bufferView":1,
		"type":"VEC2",
		"componentType":5126,
		"count":3492,
		"byteOffset":24,
		"min":[0.0,
		0.0],
		"max":[1.0,
		1.0]
	},
	{
		"bufferView":2,
		"type":"SCALAR",
		"componentType":5123,
		"count":3492,
		"byteOffset":0,
		"min":[0],
		"max":[3491]
	},
	{
		"bufferView":3,
		"type":"VEC3",
		"componentType":5126,
		"count":3492,
		"byteOffset":0,
		"min":[-3.5592153072357179,
		-0.05000000074505806,
		-2.9381906986236574],
		"max":[3.5592153072357179,
		0.05000000074505806,
		2.9381906986236574]
	},
	{
		"bufferView":3,
		"type":"VEC3",
		"componentType":5126,
		"count":3492,
		"byteOffset":12,
		"min":[-0.9975992441177368,
		-0.9974809885025024,
		-0.9975992441177368],
		"max":[0.9975992441177368,
		0.9974809885025024,
		0.9975992441177368]
	},
	{
		"bufferView":3,
		"type":"VEC2",
		"componentType":5126,
		"count":3492,
		"byteOffset":24,
		"min":[0.0,
		0.0],
		"max":[1.0,
		1.0]
	},
	{
		"bufferView":4,
		"type":"SCALAR",
		"componentType":5123,
		"count":600,
		"byteOffset":0,
		"min":[0],
		"max":[599]
	},
	{
		"bufferView":5,
		"type":"VEC3",
		"componentType":5126,
		"count":600,
		"byteOffset":0,
		"min":[-10.113296508789063,
		0.0,
		-10.113297462463379],
		"max":[10.113297462463379,
		0.0,
		10.113296508789063]
	},
	{
		"bufferView":5,
		"type":"VEC3",
		"componentType":5126,
		"count":600,
		"byteOffset":12,
		"min":[0.0,
		1.0,
		0.0],
		"max":[0.0,
		1.0,
		0.0]
	},
	{
		"bufferView":5,
		"type":"VEC2",
		"componentType":5126,
		"count":600,
		"byteOffset":24,
		"min":[0.0,
		0.0],
		"max":[1.0,
		1.0]
	},
	{
		"bufferView":6,
		"type":"SCALAR",
		"componentType":5123,
		"count":3492,
		"byteOffset":0,
		"min":[0],
		"max":[3491]
	},
	{
		"bufferView":7,
		"type":"VEC3",
		"componentType":5126,
		"count":3492,
		"byteOffset":0,
		"min":[-5.4044928550720219,
		-0.05000000074505806,
		-2.9381906986236574],
		"max":[5.4044928550720219,
		0.05000000074505806,
		2.9381906986236574]
	},
	{
		"bufferView":7,
		"type":"VEC3",
		"componentType":5126,
		"count":3492,
		"byteOffset":12,
		"min":[-0.9975992441177368,
		-0.9974809885025024,
		-0.9975992441177368],
		"max":[0.9975992441177368,
		0.9974809885025024,
		0.9975992441177368]
	},
	{
		"bufferView":7,
		"type":"VEC2",
		"componentType":5126,
		"count":3492,
		"byteOffset":24,
		"min":[0.0,
		0.0],
		"max":[1.0,
		1.0]
	},
	{
		"bufferView":8,
		"type":"SCALAR",
		"componentType":5123,
		"count":996,
		"byteOffset":0,
		"min":[0],
		"max":[995]
	},
	{
		"bufferView":9,
		"type":"VEC3",
		"componentType":5126,
		"count":996,
		"byteOffset":0,
		"min":[-0.1999278962612152,
		-0.1999278962612152,
		-0.1999278962612152],
		"max":[0.1999278962612152,
		0.1999278962612152,
		0.1999278962612152]
	},
	{
		"bufferView":9,
		"type":"VEC3",
		"componentType":5126,
		"count":996,
		"byteOffset":12,
		"min":[-0.9904966950416565,
		-0.9917945861816406,
		-0.990496814250946],
		"max":[0.9904966950416565,
		0.9917945861816406,
		0.990496814250946]
	},
	{
		"bufferView":9,
		"type":"VEC2",
		"componentType":5126,
		"count":996,
		"byteOffset":24,
		"min":[0.0,
		0.0],
		"max":[1.0,
		1.0]
	},
	{
		"bufferView":10,
		"type":"SCALAR",
		"componentType":5123,
		"count":996,
		"byteOffset":0,
		"min":[0],
		"max":[995]
	},
	{
		"bufferView":11,
		"type":"VEC3",
		"componentType":5126,
		"count":996,
		"byteOffset":0,
		"min":[-0.1999278962612152,
		-0.1999278962612152,
		-0.1999278962612152],
		"max":[0.1999278962612152,
		0.1999278962612152,
		0.1999278962612152]
	},
	{
		"bufferView":11,
		"type":"VEC3",
		"componentType":5126,
		"count":996,
		"byteOffset":12,
		"min":[-0.9904966950416565,
		-0.9917945861816406,
		-0.990496814250946],
		"max":[0.9904966950416565,
		0.9917945861816406,
		0.990496814250946]
	},
	{
		"bufferView":11,
		"type":"VEC2",
		"componentType":5126,
		"count":996,
		"byteOffset":24,
		"min":[0.0,
		0.0],
		"max":[1.0,
		1.0]
	},
	{
		"bufferView":12,
		"type":"SCALAR",
		"componentType":5123,
		"count":996,
		"byteOffset":0,
		"min":[0],
		"max":[995]
	},
	{
		"bufferView":13,
		"type":"VEC3",
		"componentType":5126,
		"count":996,
		"byteOffset":0,
		"min":[-0.1999278962612152,
		-0.1999278962612152,
		-0.1999278962612152],
		"max":[0.1999278962612152,
		0.1999278962612152,
		0.1999278962612152]
	},
	{
		"bufferView":13,
		"type":"VEC3",
		"componentType":5126,
		"count":996,
		"byteOffset":12,
		"min":[-0.9904966950416565,
		-0.9917945861816406,
		-0.990496814250946],
		"max":[0.9904966950416565,
		0.9917945861816406,
		0.990496814250946]
	},
	{
		"bufferView":13,
		"type":"VEC2",
		"componentType":5126,
		"count":996,
		"byteOffset":24,
		"min":[0.0,
		0.0],
		"max":[1.0,
		1.0]
	},
	{
		"bufferView":14,
		"type":"SCALAR",
		"componentType":5123,
		"count":996,
		"byteOffset":0,
		"min":[0],
		"max":[995]
	},
	{
		"bufferView":15,
		"type":"VEC3",
		"componentType":5126,
		"count":996,
		"byteOffset":0,
		"min":[-0.18789757788181306,
		-0.18789757788181306,
		-0.18789757788181306],
		"max":[0.18789757788181306,
		0.18789757788181306,
		0.18789757788181306]
	},
	{
		"bufferView":15,
		"type":"VEC3",
		"componentType":5126,
		"count":996,
		"byteOffset":12,
		"min":[-0.9904966950416565,
		-0.9917945861816406,
		-0.990496814250946],
		"max":[0.9904966950416565,
		0.9917945861816406,
		0.990496814250946]
	},
	{
		"bufferView":15,
		"type":"VEC2",
		"componentType":5126,
		"count":996,
		"byteOffset":24,
		"min":[0.0,
		0.0],
		"max":[1.0,
		1.0]
	},
	{
		"bufferView":16,
		"type":"SCALAR",
		"componentType":5123,
		"count":996,
		"byteOffset":0,
		"min":[0],
		"max":[995]
	},
	{
		"bufferView":17,
		"type":"VEC3",
		"componentType":5126,
		"count":996,
		"byteOffset":0,
		"min":[-0.1999278962612152,
		-0.1999278962612152,
		-0.1999278962612152],
		"max":[0.1999278962612152,
		0.1999278962612152,
		0.1999278962612152]
	},
	{
		"bufferView":17,
		"type":"VEC3",
		"componentType":5126,
		"count":996,
		"byteOffset":12,
		"min":[-0.9904966950416565,
		-0.9917945861816406,
		-0.990496814250946],
		"max":[0.9904966950416565,
		0.9917945861816406,
		0.990496814250946]
	},
	{
		"bufferView":17,
		"type":"VEC2",
		"componentType":5126,
		"count":996,
		"byteOffset":24,
		"min":[0.0,
		0.0],
		"max":[1.0,
		1.0]
	},
	{
		"bufferView":18,
		"type":"SCALAR",
		"componentType":5123,
		"count":996,
		"byteOffset":0,
		"min":[0],
		"max":[995]
	},
	{
		"bufferView":19,
		"type":"VEC3",
		"componentType":5126,
		"count":996,
		"byteOffset":0,
		"min":[-0.1999278962612152,
		-0.1999278962612152,
		-0.1999278962612152],
		"max":[0.1999278962612152,
		0.1999278962612152,
		0.1999278962612152]
	},
	{
		"bufferView":19,
		"type":"VEC3",
		"componentType":5126,
		"count":996,
		"byteOffset":12,
		"min":[-0.9904966950416565,
		-0.9917945861816406,
		-0.990496814250946],
		"max":[0.9904966950416565,
		0.9917945861816406,
		0.990496814250946]
	},
	{
		"bufferView":19,
		"type":"VEC2",
		"componentType":5126,
		"count":996,
		"byteOffset":24,
		"min":[0.0,
		0.0],
		"max":[1.0,
		1.0]
	},
	{
		"bufferView":20,
		"type":"SCALAR",
		"componentType":5123,
		"count":996,
		"byteOffset":0,
		"min":[0],
		"max":[995]
	},
	{
		"bufferView":21,
		"type":"VEC3",
		"componentType":5126,
		"count":996,
		"byteOffset":0,
		"min":[-0.1999278962612152,
		-0.1999278962612152,
		-0.1999278962612152],
		"max":[0.1999278962612152,
		0.1999278962612152,
		0.1999278962612152]
	},
	{
		"bufferView":21,
		"type":"VEC3",
		"componentType":5126,
		"count":996,
		"byteOffset":12,
		"min":[-0.9904966950416565,
		-0.9917945861816406,
		-0.990496814250946],
		"max":[0.9904966950416565,
		0.9917945861816406,
		0.990496814250946]
	},
	{
		"bufferView":21,
		"type":"VEC2",
		"componentType":5126,
		"count":996,
		"byteOffset":24,
		"min":[0.0,
		0.0],
		"max":[1.0,
		1.0]
	},
	{
		"bufferView":22,
		"type":"SCALAR",
		"componentType":5123,
		"count":996,
		"byteOffset":0,
		"min":[0],
		"max":[995]
	},
	{
		"bufferView":23,
		"type":"VEC3",
		"componentType":5126,
		"count":996,
		"byteOffset":0,
		"min":[-0.1999278962612152,
		-0.1999278962612152,
		-0.1999278962612152],
		"max":[0.1999278962612152,
		0.1999278962612152,
		0.1999278962612152]
	},
	{
		"bufferView":23,
		"type":"VEC3",
		"componentType":5126,
		"count":996,
		"byteOffset":12,
		"min":[-0.9904966950416565,
		-0.9917945861816406,
		-0.990496814250946],
		"max":[0.9904966950416565,
		0.9917945861816406,
		0.990496814250946]
	},
	{
		"bufferView":23,
		"type":"VEC2",
		"componentType":5126,
		"count":996,
		"byteOffset":24,
		"min":[0.0,
		0.0],
		"max":[1.0,
		1.0]
	},
	{
		"bufferView":24,
		"type":"SCALAR",
		"componentType":5123,
		"count":6000,
		"byteOffset":0,
		"min":[0],
		"max":[5999]
	},
	{
		"bufferView":25,
		"type":"VEC3",
		"componentType":5126,
		"count":6000,
		"byteOffset":0,
		"min":[-3.2510926723480226,
		0.29750993847846987,
		5.751468658447266],
		"max":[4.848907470703125,
		0.33750954270362856,
		7.351468563079834]
	},
	{
		"bufferView":25,
		"type":"VEC3",
		"componentType":5126,
		"count":6000,
		"byteOffset":12,
		"min":[-0.528225302696228,
		-0.9999997615814209,
		0.0],
		"max":[0.528225302696228,
		-0.8491042852401733,
		0.0]
	},
	{
		"bufferView":25,
		"type":"VEC2",
		"componentType":5126,
		"count":6000,
		"byteOffset":24,
		"min":[0.0,
		0.0],
		"max":[1.0,
		1.0]
	}],
	"bufferViews":[{
		"buffer":0,
		"byteOffset":0,
		"byteLength":6984,
		"target":34963
	},
	{
		"buffer":0,
		"byteOffset":6984,
		"byteLength":111744,
		"target":34962,
		"byteStride":32
	},
	{
		"buffer":1,
		"byteOffset":0,
		"byteLength":6984,
		"target":34963
	},
	{
		"buffer":1,
		"byteOffset":6984,
		"byteLength":111744,
		"target":34962,
		"byteStride":32
	},
	{
		"buffer":2,
		"byteOffset":0,
		"byteLength":1200,
		"target":34963
	},
	{
		"buffer":2,
		"byteOffset":1200,
		"byteLength":19200,
		"target":34962,
		"byteStride":32
	},
	{
		"buffer":3,
		"byteOffset":0,
		"byteLength":6984,
		"target":34963
	},
	{
		"buffer":3,
		"byteOffset":6984,
		"byteLength":111744,
		"target":34962,
		"byteStride":32
	},
	{
		"buffer":4,
		"byteOffset":0,
		"byteLength":1992,
		"target":34963
	},
	{
		"buffer":4,
		"byteOffset":1992,
		"byteLength":31872,
		"target":34962,
		"byteStride":32
	},
	{
		"buffer":5,
		"byteOffset":0,
		"byteLength":1992,
		"target":34963
	},
	{
		"buffer":5,
		"byteOffset":1992,
		"byteLength":31872,
		"target":34962,
		"byteStride":32
	},
	{
		"buffer":6,
		"byteOffset":0,
		"byteLength":1992,
		"target":34963
	},
	{
		"buffer":6,
		"byteOffset":1992,
		"byteLength":31872,
		"target":34962,
		"byteStride":32
	},
	{
		"buffer":7,
		"byteOffset":0,
		"byteLength":1992,
		"target":34963
	},
	{
		"buffer":7,
		"byteOffset":1992,
		"byteLength":31872,
		"target":34962,
		"byteStride":32
	},
	{
		"buffer":8,
		"byteOffset":0,
		"byteLength":1992,
		"target":34963
	},
	{
		"buffer":8,
		"byteOffset":1992,
		"byteLength":31872,
		"target":34962,
		"byteStride":32
	},
	{
		"buffer":9,
		"byteOffset":0,
		"byteLength":1992,
		"target":34963
	},
	{
		"buffer":9,
		"byteOffset":1992,
		"byteLength":31872,
		"target":34962,
		"byteStride":32
	},
	{
		"buffer":10,
		"byteOffset":0,
		"byteLength":1992,
		"target":34963
	},
	{
		"buffer":10,
		"byteOffset":1992,
		"byteLength":31872,
		"target":34962,
		"byteStride":32
	},
	{
		"buffer":11,
		"byteOffset":0,
		"byteLength":1992,
		"target":34963
	},
	{
		"buffer":11,
		"byteOffset":1992,
		"byteLength":31872,
		"target":34962,
		"byteStride":32
	},
	{
		"buffer":12,
		"byteOffset":0,
		"byteLength":12000,
		"target":34963
	},
	{
		"buffer":12,
		"byteOffset":12000,
		"byteLength":192000,
		"target":34962,
		"byteStride":32
	}],
	"buffers":[{
		"uri":"data:application/octet-stream;base64,",
		"byteLength":118728
	},
	{
		"uri":"data:application/octet-stream;base64,",
		"byteLength":118728
	},
	{
		"uri":"data:application/octet-stream;base64,",
		"byteLength":20400
	},
	{
		"uri":"data:application/octet-stream;base64,",
		"byteLength":118728
	},
	{
		"uri":"data:application/octet-stream;base64,",
		"byteLength":33864
	},
	{
		"uri":"data:application/octet-stream;base64,",
		"byteLength":33864
	},
	{
		"uri":"data:application/octet-stream;base64,",
		"byteLength":33864
	},
	{
		"uri":"data:application/octet-stream;base64,",
		"byteLength":33864
	},
	{
		"uri":"data:application/octet-stream;base64,",
		"byteLength":33864
	},
	{
		"uri":"data:application/octet-stream;base64,",
		"byteLength":33864
	},
	{
		"uri":"data:application/octet-stream;base64,",
		"byteLength":33864
	},
	{
		"uri":"data:application/octet-stream;base64,",
		"byteLength":33864
	},
	{
		"uri":"data:application/octet-stream;base64,",
		"byteLength":204000
	}],
	"materials":[{
		"pbrMetallicRoughness":{
			"baseColorFactor":[1.0,
			1.0,
			1.0,
			1.0],
			"metallicFactor":1.0,
			"roughnessFactor":1.0
		},
		"emissiveFactor":[0.0,
		0.0,
		0.0],
		"alphaMode":"OPAQUE",
		"doubleSided":false,
		"name":""
	},
	{
		"pbrMetallicRoughness":{
			"baseColorFactor":[1.0,
			1.0,
			1.0,
			1.0],
			"metallicFactor":1.0,
			"roughnessFactor":1.0
		},
		"emissiveFactor":[0.0,
		0.0,
		0.0],
		"alphaMode":"OPAQUE",
		"doubleSided":false,
		"name":""
	},
	{
		"pbrMetallicRoughness":{
			"baseColorFactor":[1.0,
			1.0,
			1.0,
			1.0],
			"metallicFactor":1.0,
			"roughnessFactor":1.0
		},
		"emissiveFactor":[0.0,
		0.0,
		0.0],
		"alphaMode":"OPAQUE",
		"doubleSided":false,
		"name":""
	},
	{
		"pbrMetallicRoughness":{
			"baseColorFactor":[1.0,
			1.0,
			1.0,
			1.0],
			"metallicFactor":1.0,
			"roughnessFactor":1.0
		},
		"emissiveFactor":[0.0,
		0.0,
		0.0],
		"alphaMode":"OPAQUE",
		"doubleSided":false,
		"name":""
	},
	{
		"pbrMetallicRoughness":{
			"baseColorFactor":[1.0,
			1.0,
			1.0,
			1.0],
			"metallicFactor":1.0,
			"roughnessFactor":1.0
		},
		"emissiveFactor":[0.0,
		0.0,
		0.0],
		"alphaMode":"OPAQUE",
		"doubleSided":false,
		"name":""
	},
	{
		"pbrMetallicRoughness":{
			"baseColorFactor":[1.0,
			1.0,
			1.0,
			1.0],
			"metallicFactor":1.0,
			"roughnessFactor":1.0
		},
		"emissiveFactor":[0.0,
		0.0,
		0.0],
		"alphaMode":"OPAQUE",
		"doubleSided":false,
		"name":""
	},
	{
		"pbrMetallicRoughness":{
			"baseColorFactor":[1.0,
			1.0,
			1.0,
			1.0],
			"metallicFactor":1.0,
			"roughnessFactor":1.0
		},
		"emissiveFactor":[0.0,
		0.0,
		0.0],
		"alphaMode":"OPAQUE",
		"doubleSided":false,
		"name":""
	},
	{
		"pbrMetallicRoughness":{
			"baseColorFactor":[1.0,
			1.0,
			1.0,
			1.0],
			"metallicFactor":1.0,
			"roughnessFactor":1.0
		},
		"emissiveFactor":[0.0,
		0.0,
		0.0],
		"alphaMode":"OPAQUE",
		"doubleSided":false,
		"name":""
	},
	{
		"pbrMetallicRoughness":{
			"baseColorFactor":[1.0,
			1.0,
			1.0,
			1.0],
			"metallicFactor":1.0,
			"roughnessFactor":1.0
		},
		"emissiveFactor":[0.0,
		0.0,
		0.0],
		"alphaMode":"OPAQUE",
		"doubleSided":false,
		"name":""
	},
	{
		"pbrMetallicRoughness":{
			"baseColorFactor":[1.0,
			1.0,
			1.0,
			1.0],
			"metallicFactor":1.0,
			"roughnessFactor":1.0
		},
		"emissiveFactor":[0.0,
		0.0,
		0.0],
		"alphaMode":"OPAQUE",
		"doubleSided":false,
		"name":""
	},
	{
		"pbrMetallicRoughness":{
			"baseColorFactor":[1.0,
			1.0,
			1.0,
			1.0],
			"metallicFactor":1.0,
			"roughnessFactor":1.0
		},
		"emissiveFactor":[0.0,
		0.0,
		0.0],
		"alphaMode":"OPAQUE",
		"doubleSided":false,
		"name":""
	},
	{
		"pbrMetallicRoughness":{
			"baseColorFactor":[1.0,
			1.0,
			1.0,
			1.0],
			"metallicFactor":1.0,
			"roughnessFactor":1.0
		},
		"emissiveFactor":[0.0,
		0.0,
		0.0],
		"alphaMode":"OPAQUE",
		"doubleSided":false,
		"name":""
	},
	{
		"pbrMetallicRoughness":{
			"baseColorFactor":[1.0,
			1.0,
			1.0,
			1.0],
			"metallicFactor":1.0,
			"roughnessFactor":1.0
		},
		"emissiveFactor":[0.0,
		0.0,
		0.0],
		"alphaMode":"OPAQUE",
		"doubleSided":false,
		"name":""
	}]
}