<?xml version="1.0" encoding="UTF-8" standalone="no"?>
<svg
   class="icon icon__round icon__size-normal"
   viewBox="-20 -20 40 40"
   aria-hidden="true"
   version="1.1"
   id="svg52"
   sodipodi:docname="brain.svg"
   inkscape:version="1.2.2 (732a01da63, 2022-12-09)"
   xmlns:inkscape="http://www.inkscape.org/namespaces/inkscape"
   xmlns:sodipodi="http://sodipodi.sourceforge.net/DTD/sodipodi-0.dtd"
   xmlns="http://www.w3.org/2000/svg"
   xmlns:svg="http://www.w3.org/2000/svg">
  <defs
     id="defs56" />
  <sodipodi:namedview
     id="namedview54"
     pagecolor="#ffffff"
     bordercolor="#000000"
     borderopacity="0.25"
     inkscape:showpageshadow="2"
     inkscape:pageopacity="0.0"
     inkscape:pagecheckerboard="0"
     inkscape:deskcolor="#d1d1d1"
     showgrid="false"
     inkscape:zoom="7.3981047"
     inkscape:cx="1.8923766"
     inkscape:cy="65.557331"
     inkscape:window-width="1920"
     inkscape:window-height="1017"
     inkscape:window-x="-8"
     inkscape:window-y="-8"
     inkscape:window-maximized="1"
     inkscape:current-layer="svg52" />
  <circle
     class="icon__default-circle"
     cx="0"
     cy="0"
     r="19.5"
     vector-effect="non-scaling-stroke"
     style="visibility:inherit;opacity:1"
     id="circle2" />
  <circle
     class="icon__second-circle"
     cx="0"
     cy="0"
     r="19.5"
     vector-effect="non-scaling-stroke"
     id="circle4" />
  <circle
     class="icon__third-circle"
     cx="0"
     cy="0"
     r="19.5"
     vector-effect="non-scaling-stroke"
     id="circle6" />
  <circle
     class="icon__background-circle"
     cx="0"
     cy="0"
     r="19.5"
     vector-effect="non-scaling-stroke"
     id="circle8" />
  <g
     class="icon__content"
     data-svg-origin="20.000000953674316 19.98054790496826"
     style="visibility:inherit;opacity:1"
     transform="translate(-20,-20)"
     id="g22">
    <polygon
       points="23.4,19.9 "
       id="polygon10" />
    <path
       d="m 29.2,21.2 c 0,-0.8 -0.3,-1.7 -1,-2.5 l 0.2,-0.3 c 0.6,-0.9 0.7,-2.1 0.4,-3.1 -0.2,-0.8 -0.6,-1.5 -1.1,-2 -0.6,-0.6 -1.2,-0.9 -2,-1.2 -0.1,0 -0.2,-0.1 -0.3,-0.1 -0.1,-0.1 -0.2,-0.2 -0.2,-0.3 -0.6,-1.3 -1.9,-2.1 -3.4,-2.1 -0.5,0 -1.1,0.1 -1.6,0.3 0,0.1 -0.1,0.1 -0.2,0.1 -0.1,0 -0.2,0 -0.2,-0.1 -0.5,-0.2 -1,-0.3 -1.5,-0.3 -0.3,0 -0.5,0 -0.8,0.1 -1.2,0.2 -2.1,1 -2.6,2.1 0,0.1 -0.1,0.2 -0.2,0.2 -0.1,0.1 -0.2,0.1 -0.3,0.1 -2.1,0.6 -3.3,2.4 -3.3,4.2 0,0.8 0.2,1.5 0.6,2.2 0,0.1 0.1,0.1 0.1,0.2 -0.6,0.7 -1,1.5 -1,2.5 0,0.2 0,0.4 0,0.5 0.2,1.1 0.8,2 1.7,2.6 0,0.1 0,0.2 0,0.3 0,0.1 0,0.1 0,0.2 0,0.2 0,0.3 0,0.5 0.1,0.7 0.4,1.3 0.8,1.8 0.5,0.5 1,0.9 1.7,1.1 0.2,0.1 0.3,0.2 0.4,0.3 0.8,1.5 2.6,2.2 4.2,1.7 0.1,0 0.2,0 0.2,0 0.1,0 0.2,0 0.3,0 1.6,0.5 3.3,-0.2 4.1,-1.6 0.1,-0.2 0.3,-0.4 0.6,-0.5 0.6,-0.2 1.2,-0.6 1.6,-1.1 0.4,-0.5 0.7,-1.1 0.8,-1.8 0,-0.3 0.1,-0.6 0.1,-1 1.2,-0.5 1.9,-1.7 1.9,-3 z m -2.7,1.1 C 26.4,22.2 26.4,22.1 26.3,22.1 26.2,22 26.1,22 26,22 c -0.1,0 -0.2,0 -0.3,0.1 -0.1,0.1 -0.2,0.2 -0.2,0.4 0,0.1 0,0.2 0.1,0.3 0.3,0.3 0.5,0.6 0.7,1 0.1,0.3 0.2,0.7 0.2,1.1 0,0.5 -0.2,1 -0.5,1.4 -0.4,0.5 -1,0.9 -1.6,1 -0.1,0 -0.3,0.1 -0.4,0.2 -0.1,0.1 -0.2,0.2 -0.2,0.3 -0.5,1 -1.4,1.6 -2.5,1.6 -0.1,0 -0.3,0 -0.4,0 -0.1,0 -0.2,0 -0.3,-0.1 V 11.2 c 0,-0.1 0,-0.2 0,-0.2 0,0 0,-0.1 0,-0.1 0,0 0.1,-0.1 0.1,-0.1 0.1,0 0.2,-0.1 0.3,-0.1 0.3,-0.1 0.6,-0.2 0.9,-0.2 1.1,0 2.2,0.7 2.6,1.7 0,0 0,0.1 0.1,0.1 0,0.2 0.1,0.3 0.2,0.4 0.1,0.1 0.3,0.1 0.4,0.2 1.6,0.3 2.9,1.7 2.9,3.3 0,0.1 0,0.1 0,0.2 -0.1,1.5 -1.2,2.8 -2.7,3 -0.2,0 -0.3,0 -0.5,0 -0.2,0 -0.4,0 -0.6,0 h -0.1 c 0,0 -0.1,0 -0.1,0 H 24 c -0.1,0 -0.3,0 -0.4,0.1 -0.1,0.1 -0.2,0.2 -0.2,0.3 0,0 0,0 0,0.1 0,0.1 0,0.2 0.1,0.3 0.1,0.1 0.2,0.1 0.3,0.2 0.3,0 0.5,0.1 0.8,0.1 1,0 1.9,-0.3 2.6,-0.9 0.1,-0.1 0.1,-0.1 0.2,-0.2 0,0 0,0 0,0 0.5,0.5 0.7,1.1 0.7,1.7 0,0.8 -0.4,1.7 -1.1,2.1 -0.1,-0.2 -0.3,-0.6 -0.5,-0.9 z m -9.6,6 c 0.6,-0.1 1.2,-0.4 1.7,-0.8 0.1,0 0.1,-0.1 0.2,-0.2 0.1,-0.1 0.1,-0.2 0.1,-0.3 0,-0.1 0,-0.2 -0.1,-0.3 -0.1,-0.1 -0.2,-0.2 -0.4,-0.2 -0.1,0 -0.1,0 -0.2,0 -0.1,0.1 -0.2,0.1 -0.3,0.2 -0.5,0.4 -1.1,0.6 -1.7,0.6 -1.3,0 -2.5,-0.9 -2.7,-2.2 0,-0.1 0,-0.2 0,-0.3 0,-0.2 0,-0.3 0.1,-0.5 0,-0.1 0,-0.2 0,-0.3 0,-0.1 0,-0.2 -0.1,-0.3 -0.1,-0.1 -0.2,-0.2 -0.3,-0.2 -0.4,-0.2 -0.8,-0.6 -1.1,-1 -0.3,-0.4 -0.4,-0.9 -0.4,-1.4 0,0 0,0 0,-0.1 0,-0.6 0.2,-1.2 0.6,-1.7 0.4,-0.5 0.9,-0.8 1.6,-1 0.2,0 0.4,-0.1 0.6,-0.1 0.3,0 0.5,0 0.8,0.1 0,0 0.1,0 0.1,0 0.1,0 0.3,0 0.3,-0.1 0.1,-0.1 0.1,-0.2 0.1,-0.3 0,-0.1 0,-0.1 0,-0.2 0,-0.1 -0.1,-0.2 -0.2,-0.2 -0.1,-0.1 -0.2,-0.1 -0.3,-0.1 -0.3,-0.1 -0.6,-0.1 -0.9,-0.1 -0.5,0 -1,0.1 -1.5,0.3 -0.2,0.1 -0.3,0.2 -0.5,0.3 C 12.2,17.6 12,17 12,16.3 c 0,-0.4 0.1,-0.7 0.2,-1.1 0.4,-1.1 1.1,-1.7 2.2,-2.1 v 0.3 0 0 c 0,0.6 0.1,1.2 0.4,1.7 0.1,0.2 0.2,0.3 0.4,0.3 0,0 0,0 0.1,0 0.1,0 0.2,-0.1 0.3,-0.1 0.1,-0.1 0.1,-0.2 0.1,-0.3 v 0 c 0,0 0,0 0,-0.1 0,-0.1 0,-0.2 -0.1,-0.3 -0.2,-0.4 -0.3,-0.9 -0.3,-1.4 0,0 0,-0.1 0,-0.1 0,-1.4 1.2,-2.6 2.6,-2.7 0.1,0 0.1,0 0.2,0 0.5,0 1,0.1 1.3,0.3 v 18.4 c -0.2,0.1 -0.5,0.1 -0.7,0.1 -0.5,0 -0.9,-0.1 -1.3,-0.3 -0.3,-0.2 -0.6,-0.4 -0.8,-0.7 0.1,0.2 0.2,0.1 0.3,0.1 z"
       id="path12" />
    <path
       d="M 18.2,20 C 18.1,19.9 18,19.9 17.9,19.9 v 0 c -0.1,0 -0.2,0 -0.3,0.1 -0.1,0.1 -0.1,0.2 -0.2,0.3 0,0.1 0,0.2 0,0.2 -0.1,1.2 -1.1,2.2 -2.3,2.2 -0.1,0 -0.3,0 -0.4,0.1 -0.1,0.1 -0.1,0.2 -0.1,0.3 v 0 0 c 0,0.1 0,0.3 0.1,0.3 0.1,0.1 0.2,0.1 0.4,0.1 v 0 c 0.2,0 0.5,0 0.7,-0.1 1.4,-0.3 2.6,-1.7 2.6,-3.1 v 0 c 0,0 0,-0.1 0,-0.1 0,0 0,0 0,-0.1 -0.1,0.1 -0.1,0 -0.2,-0.1 z"
       id="path14" />
    <polygon
       points="25.5,16.8 "
       id="polygon16" />
    <path
       d="m 21.7,14.1 c 0.1,1.5 1.2,2.8 2.7,3.1 0.2,0 0.4,0.1 0.6,0.1 v 0 c 0.1,0 0.2,0 0.3,-0.1 0.1,-0.1 0.1,-0.2 0.1,-0.3 v 0 0 c 0,-0.1 0,-0.2 -0.1,-0.3 -0.1,-0.1 -0.2,-0.1 -0.3,-0.2 -0.1,0 -0.2,0 -0.4,0 -1.1,-0.1 -2,-1.1 -2.1,-2.2 0,-0.2 0,-0.3 -0.1,-0.4 -0.1,-0.1 -0.2,-0.2 -0.4,-0.2 v 0 c -0.1,0 -0.3,0.1 -0.3,0.2 0,-0.1 0,0.1 0,0.3 v 0 z"
       id="path18" />
    <path
       d="m 24.7,23.8 c -0.1,-0.1 -0.2,-0.1 -0.3,-0.1 -0.1,0 -0.1,0 -0.2,0 -0.7,0.2 -1.3,0.5 -1.8,1.1 -0.5,0.5 -0.8,1.2 -0.8,1.9 v 0 c 0,0.1 0,0.2 0,0.2 0,0 0,0.1 0,0.1 0,0.2 0.2,0.4 0.5,0.4 v 0 c 0.2,0 0.4,-0.2 0.5,-0.4 0,-0.1 0,-0.2 0,-0.2 0.1,-0.8 0.4,-1.4 1,-1.8 0.3,-0.2 0.6,-0.3 0.9,-0.4 0.1,0 0.2,-0.1 0.3,-0.2 0.1,-0.1 0.1,-0.2 0.1,-0.3 0,0 0,-0.1 0,-0.1 0,-0.1 -0.1,-0.1 -0.2,-0.2 z"
       id="path20" />
  </g>
  <g
     class="icon__content icon__content-shine"
     data-svg-origin="20.000000953674316 19.98054790496826"
     style="visibility:inherit;opacity:1"
     transform="translate(-20,-20)"
     id="g36">
    <polygon
       points="23.4,19.9 "
       id="polygon24" />
    <path
       d="m 29.2,21.2 c 0,-0.8 -0.3,-1.7 -1,-2.5 l 0.2,-0.3 c 0.6,-0.9 0.7,-2.1 0.4,-3.1 -0.2,-0.8 -0.6,-1.5 -1.1,-2 -0.6,-0.6 -1.2,-0.9 -2,-1.2 -0.1,0 -0.2,-0.1 -0.3,-0.1 -0.1,-0.1 -0.2,-0.2 -0.2,-0.3 -0.6,-1.3 -1.9,-2.1 -3.4,-2.1 -0.5,0 -1.1,0.1 -1.6,0.3 0,0.1 -0.1,0.1 -0.2,0.1 -0.1,0 -0.2,0 -0.2,-0.1 -0.5,-0.2 -1,-0.3 -1.5,-0.3 -0.3,0 -0.5,0 -0.8,0.1 -1.2,0.2 -2.1,1 -2.6,2.1 0,0.1 -0.1,0.2 -0.2,0.2 -0.1,0.1 -0.2,0.1 -0.3,0.1 -2.1,0.6 -3.3,2.4 -3.3,4.2 0,0.8 0.2,1.5 0.6,2.2 0,0.1 0.1,0.1 0.1,0.2 -0.6,0.7 -1,1.5 -1,2.5 0,0.2 0,0.4 0,0.5 0.2,1.1 0.8,2 1.7,2.6 0,0.1 0,0.2 0,0.3 0,0.1 0,0.1 0,0.2 0,0.2 0,0.3 0,0.5 0.1,0.7 0.4,1.3 0.8,1.8 0.5,0.5 1,0.9 1.7,1.1 0.2,0.1 0.3,0.2 0.4,0.3 0.8,1.5 2.6,2.2 4.2,1.7 0.1,0 0.2,0 0.2,0 0.1,0 0.2,0 0.3,0 1.6,0.5 3.3,-0.2 4.1,-1.6 0.1,-0.2 0.3,-0.4 0.6,-0.5 0.6,-0.2 1.2,-0.6 1.6,-1.1 0.4,-0.5 0.7,-1.1 0.8,-1.8 0,-0.3 0.1,-0.6 0.1,-1 1.2,-0.5 1.9,-1.7 1.9,-3 z m -2.7,1.1 C 26.4,22.2 26.4,22.1 26.3,22.1 26.2,22 26.1,22 26,22 c -0.1,0 -0.2,0 -0.3,0.1 -0.1,0.1 -0.2,0.2 -0.2,0.4 0,0.1 0,0.2 0.1,0.3 0.3,0.3 0.5,0.6 0.7,1 0.1,0.3 0.2,0.7 0.2,1.1 0,0.5 -0.2,1 -0.5,1.4 -0.4,0.5 -1,0.9 -1.6,1 -0.1,0 -0.3,0.1 -0.4,0.2 -0.1,0.1 -0.2,0.2 -0.2,0.3 -0.5,1 -1.4,1.6 -2.5,1.6 -0.1,0 -0.3,0 -0.4,0 -0.1,0 -0.2,0 -0.3,-0.1 V 11.2 c 0,-0.1 0,-0.2 0,-0.2 0,0 0,-0.1 0,-0.1 0,0 0.1,-0.1 0.1,-0.1 0.1,0 0.2,-0.1 0.3,-0.1 0.3,-0.1 0.6,-0.2 0.9,-0.2 1.1,0 2.2,0.7 2.6,1.7 0,0 0,0.1 0.1,0.1 0,0.2 0.1,0.3 0.2,0.4 0.1,0.1 0.3,0.1 0.4,0.2 1.6,0.3 2.9,1.7 2.9,3.3 0,0.1 0,0.1 0,0.2 -0.1,1.5 -1.2,2.8 -2.7,3 -0.2,0 -0.3,0 -0.5,0 -0.2,0 -0.4,0 -0.6,0 h -0.1 c 0,0 -0.1,0 -0.1,0 H 24 c -0.1,0 -0.3,0 -0.4,0.1 -0.1,0.1 -0.2,0.2 -0.2,0.3 0,0 0,0 0,0.1 0,0.1 0,0.2 0.1,0.3 0.1,0.1 0.2,0.1 0.3,0.2 0.3,0 0.5,0.1 0.8,0.1 1,0 1.9,-0.3 2.6,-0.9 0.1,-0.1 0.1,-0.1 0.2,-0.2 0,0 0,0 0,0 0.5,0.5 0.7,1.1 0.7,1.7 0,0.8 -0.4,1.7 -1.1,2.1 -0.1,-0.2 -0.3,-0.6 -0.5,-0.9 z m -9.6,6 c 0.6,-0.1 1.2,-0.4 1.7,-0.8 0.1,0 0.1,-0.1 0.2,-0.2 0.1,-0.1 0.1,-0.2 0.1,-0.3 0,-0.1 0,-0.2 -0.1,-0.3 -0.1,-0.1 -0.2,-0.2 -0.4,-0.2 -0.1,0 -0.1,0 -0.2,0 -0.1,0.1 -0.2,0.1 -0.3,0.2 -0.5,0.4 -1.1,0.6 -1.7,0.6 -1.3,0 -2.5,-0.9 -2.7,-2.2 0,-0.1 0,-0.2 0,-0.3 0,-0.2 0,-0.3 0.1,-0.5 0,-0.1 0,-0.2 0,-0.3 0,-0.1 0,-0.2 -0.1,-0.3 -0.1,-0.1 -0.2,-0.2 -0.3,-0.2 -0.4,-0.2 -0.8,-0.6 -1.1,-1 -0.3,-0.4 -0.4,-0.9 -0.4,-1.4 0,0 0,0 0,-0.1 0,-0.6 0.2,-1.2 0.6,-1.7 0.4,-0.5 0.9,-0.8 1.6,-1 0.2,0 0.4,-0.1 0.6,-0.1 0.3,0 0.5,0 0.8,0.1 0,0 0.1,0 0.1,0 0.1,0 0.3,0 0.3,-0.1 0.1,-0.1 0.1,-0.2 0.1,-0.3 0,-0.1 0,-0.1 0,-0.2 0,-0.1 -0.1,-0.2 -0.2,-0.2 -0.1,-0.1 -0.2,-0.1 -0.3,-0.1 -0.3,-0.1 -0.6,-0.1 -0.9,-0.1 -0.5,0 -1,0.1 -1.5,0.3 -0.2,0.1 -0.3,0.2 -0.5,0.3 C 12.2,17.6 12,17 12,16.3 c 0,-0.4 0.1,-0.7 0.2,-1.1 0.4,-1.1 1.1,-1.7 2.2,-2.1 v 0.3 0 0 c 0,0.6 0.1,1.2 0.4,1.7 0.1,0.2 0.2,0.3 0.4,0.3 0,0 0,0 0.1,0 0.1,0 0.2,-0.1 0.3,-0.1 0.1,-0.1 0.1,-0.2 0.1,-0.3 v 0 c 0,0 0,0 0,-0.1 0,-0.1 0,-0.2 -0.1,-0.3 -0.2,-0.4 -0.3,-0.9 -0.3,-1.4 0,0 0,-0.1 0,-0.1 0,-1.4 1.2,-2.6 2.6,-2.7 0.1,0 0.1,0 0.2,0 0.5,0 1,0.1 1.3,0.3 v 18.4 c -0.2,0.1 -0.5,0.1 -0.7,0.1 -0.5,0 -0.9,-0.1 -1.3,-0.3 -0.3,-0.2 -0.6,-0.4 -0.8,-0.7 0.1,0.2 0.2,0.1 0.3,0.1 z"
       id="path26" />
    <path
       d="M 18.2,20 C 18.1,19.9 18,19.9 17.9,19.9 v 0 c -0.1,0 -0.2,0 -0.3,0.1 -0.1,0.1 -0.1,0.2 -0.2,0.3 0,0.1 0,0.2 0,0.2 -0.1,1.2 -1.1,2.2 -2.3,2.2 -0.1,0 -0.3,0 -0.4,0.1 -0.1,0.1 -0.1,0.2 -0.1,0.3 v 0 0 c 0,0.1 0,0.3 0.1,0.3 0.1,0.1 0.2,0.1 0.4,0.1 v 0 c 0.2,0 0.5,0 0.7,-0.1 1.4,-0.3 2.6,-1.7 2.6,-3.1 v 0 c 0,0 0,-0.1 0,-0.1 0,0 0,0 0,-0.1 -0.1,0.1 -0.1,0 -0.2,-0.1 z"
       id="path28" />
    <polygon
       points="25.5,16.8 "
       id="polygon30" />
    <path
       d="m 21.7,14.1 c 0.1,1.5 1.2,2.8 2.7,3.1 0.2,0 0.4,0.1 0.6,0.1 v 0 c 0.1,0 0.2,0 0.3,-0.1 0.1,-0.1 0.1,-0.2 0.1,-0.3 v 0 0 c 0,-0.1 0,-0.2 -0.1,-0.3 -0.1,-0.1 -0.2,-0.1 -0.3,-0.2 -0.1,0 -0.2,0 -0.4,0 -1.1,-0.1 -2,-1.1 -2.1,-2.2 0,-0.2 0,-0.3 -0.1,-0.4 -0.1,-0.1 -0.2,-0.2 -0.4,-0.2 v 0 c -0.1,0 -0.3,0.1 -0.3,0.2 0,-0.1 0,0.1 0,0.3 v 0 z"
       id="path32" />
    <path
       d="m 24.7,23.8 c -0.1,-0.1 -0.2,-0.1 -0.3,-0.1 -0.1,0 -0.1,0 -0.2,0 -0.7,0.2 -1.3,0.5 -1.8,1.1 -0.5,0.5 -0.8,1.2 -0.8,1.9 v 0 c 0,0.1 0,0.2 0,0.2 0,0 0,0.1 0,0.1 0,0.2 0.2,0.4 0.5,0.4 v 0 c 0.2,0 0.4,-0.2 0.5,-0.4 0,-0.1 0,-0.2 0,-0.2 0.1,-0.8 0.4,-1.4 1,-1.8 0.3,-0.2 0.6,-0.3 0.9,-0.4 0.1,0 0.2,-0.1 0.3,-0.2 0.1,-0.1 0.1,-0.2 0.1,-0.3 0,0 0,-0.1 0,-0.1 0,-0.1 -0.1,-0.1 -0.2,-0.2 z"
       id="path34" />
  </g>
  <g
     class="icon__content icon__content-shine-permanent"
     data-svg-origin="20.000000953674316 19.98054790496826"
     style="visibility:inherit;opacity:1"
     transform="translate(-20,-20)"
     id="g50">
    <polygon
       points="23.4,19.9 "
       id="polygon38" />
    <path
       d="m 29.2,21.2 c 0,-0.8 -0.3,-1.7 -1,-2.5 l 0.2,-0.3 c 0.6,-0.9 0.7,-2.1 0.4,-3.1 -0.2,-0.8 -0.6,-1.5 -1.1,-2 -0.6,-0.6 -1.2,-0.9 -2,-1.2 -0.1,0 -0.2,-0.1 -0.3,-0.1 -0.1,-0.1 -0.2,-0.2 -0.2,-0.3 -0.6,-1.3 -1.9,-2.1 -3.4,-2.1 -0.5,0 -1.1,0.1 -1.6,0.3 0,0.1 -0.1,0.1 -0.2,0.1 -0.1,0 -0.2,0 -0.2,-0.1 -0.5,-0.2 -1,-0.3 -1.5,-0.3 -0.3,0 -0.5,0 -0.8,0.1 -1.2,0.2 -2.1,1 -2.6,2.1 0,0.1 -0.1,0.2 -0.2,0.2 -0.1,0.1 -0.2,0.1 -0.3,0.1 -2.1,0.6 -3.3,2.4 -3.3,4.2 0,0.8 0.2,1.5 0.6,2.2 0,0.1 0.1,0.1 0.1,0.2 -0.6,0.7 -1,1.5 -1,2.5 0,0.2 0,0.4 0,0.5 0.2,1.1 0.8,2 1.7,2.6 0,0.1 0,0.2 0,0.3 0,0.1 0,0.1 0,0.2 0,0.2 0,0.3 0,0.5 0.1,0.7 0.4,1.3 0.8,1.8 0.5,0.5 1,0.9 1.7,1.1 0.2,0.1 0.3,0.2 0.4,0.3 0.8,1.5 2.6,2.2 4.2,1.7 0.1,0 0.2,0 0.2,0 0.1,0 0.2,0 0.3,0 1.6,0.5 3.3,-0.2 4.1,-1.6 0.1,-0.2 0.3,-0.4 0.6,-0.5 0.6,-0.2 1.2,-0.6 1.6,-1.1 0.4,-0.5 0.7,-1.1 0.8,-1.8 0,-0.3 0.1,-0.6 0.1,-1 1.2,-0.5 1.9,-1.7 1.9,-3 z m -2.7,1.1 C 26.4,22.2 26.4,22.1 26.3,22.1 26.2,22 26.1,22 26,22 c -0.1,0 -0.2,0 -0.3,0.1 -0.1,0.1 -0.2,0.2 -0.2,0.4 0,0.1 0,0.2 0.1,0.3 0.3,0.3 0.5,0.6 0.7,1 0.1,0.3 0.2,0.7 0.2,1.1 0,0.5 -0.2,1 -0.5,1.4 -0.4,0.5 -1,0.9 -1.6,1 -0.1,0 -0.3,0.1 -0.4,0.2 -0.1,0.1 -0.2,0.2 -0.2,0.3 -0.5,1 -1.4,1.6 -2.5,1.6 -0.1,0 -0.3,0 -0.4,0 -0.1,0 -0.2,0 -0.3,-0.1 V 11.2 c 0,-0.1 0,-0.2 0,-0.2 0,0 0,-0.1 0,-0.1 0,0 0.1,-0.1 0.1,-0.1 0.1,0 0.2,-0.1 0.3,-0.1 0.3,-0.1 0.6,-0.2 0.9,-0.2 1.1,0 2.2,0.7 2.6,1.7 0,0 0,0.1 0.1,0.1 0,0.2 0.1,0.3 0.2,0.4 0.1,0.1 0.3,0.1 0.4,0.2 1.6,0.3 2.9,1.7 2.9,3.3 0,0.1 0,0.1 0,0.2 -0.1,1.5 -1.2,2.8 -2.7,3 -0.2,0 -0.3,0 -0.5,0 -0.2,0 -0.4,0 -0.6,0 h -0.1 c 0,0 -0.1,0 -0.1,0 H 24 c -0.1,0 -0.3,0 -0.4,0.1 -0.1,0.1 -0.2,0.2 -0.2,0.3 0,0 0,0 0,0.1 0,0.1 0,0.2 0.1,0.3 0.1,0.1 0.2,0.1 0.3,0.2 0.3,0 0.5,0.1 0.8,0.1 1,0 1.9,-0.3 2.6,-0.9 0.1,-0.1 0.1,-0.1 0.2,-0.2 0,0 0,0 0,0 0.5,0.5 0.7,1.1 0.7,1.7 0,0.8 -0.4,1.7 -1.1,2.1 -0.1,-0.2 -0.3,-0.6 -0.5,-0.9 z m -9.6,6 c 0.6,-0.1 1.2,-0.4 1.7,-0.8 0.1,0 0.1,-0.1 0.2,-0.2 0.1,-0.1 0.1,-0.2 0.1,-0.3 0,-0.1 0,-0.2 -0.1,-0.3 -0.1,-0.1 -0.2,-0.2 -0.4,-0.2 -0.1,0 -0.1,0 -0.2,0 -0.1,0.1 -0.2,0.1 -0.3,0.2 -0.5,0.4 -1.1,0.6 -1.7,0.6 -1.3,0 -2.5,-0.9 -2.7,-2.2 0,-0.1 0,-0.2 0,-0.3 0,-0.2 0,-0.3 0.1,-0.5 0,-0.1 0,-0.2 0,-0.3 0,-0.1 0,-0.2 -0.1,-0.3 -0.1,-0.1 -0.2,-0.2 -0.3,-0.2 -0.4,-0.2 -0.8,-0.6 -1.1,-1 -0.3,-0.4 -0.4,-0.9 -0.4,-1.4 0,0 0,0 0,-0.1 0,-0.6 0.2,-1.2 0.6,-1.7 0.4,-0.5 0.9,-0.8 1.6,-1 0.2,0 0.4,-0.1 0.6,-0.1 0.3,0 0.5,0 0.8,0.1 0,0 0.1,0 0.1,0 0.1,0 0.3,0 0.3,-0.1 0.1,-0.1 0.1,-0.2 0.1,-0.3 0,-0.1 0,-0.1 0,-0.2 0,-0.1 -0.1,-0.2 -0.2,-0.2 -0.1,-0.1 -0.2,-0.1 -0.3,-0.1 -0.3,-0.1 -0.6,-0.1 -0.9,-0.1 -0.5,0 -1,0.1 -1.5,0.3 -0.2,0.1 -0.3,0.2 -0.5,0.3 C 12.2,17.6 12,17 12,16.3 c 0,-0.4 0.1,-0.7 0.2,-1.1 0.4,-1.1 1.1,-1.7 2.2,-2.1 v 0.3 0 0 c 0,0.6 0.1,1.2 0.4,1.7 0.1,0.2 0.2,0.3 0.4,0.3 0,0 0,0 0.1,0 0.1,0 0.2,-0.1 0.3,-0.1 0.1,-0.1 0.1,-0.2 0.1,-0.3 v 0 c 0,0 0,0 0,-0.1 0,-0.1 0,-0.2 -0.1,-0.3 -0.2,-0.4 -0.3,-0.9 -0.3,-1.4 0,0 0,-0.1 0,-0.1 0,-1.4 1.2,-2.6 2.6,-2.7 0.1,0 0.1,0 0.2,0 0.5,0 1,0.1 1.3,0.3 v 18.4 c -0.2,0.1 -0.5,0.1 -0.7,0.1 -0.5,0 -0.9,-0.1 -1.3,-0.3 -0.3,-0.2 -0.6,-0.4 -0.8,-0.7 0.1,0.2 0.2,0.1 0.3,0.1 z"
       id="path40" />
    <path
       d="M 18.2,20 C 18.1,19.9 18,19.9 17.9,19.9 v 0 c -0.1,0 -0.2,0 -0.3,0.1 -0.1,0.1 -0.1,0.2 -0.2,0.3 0,0.1 0,0.2 0,0.2 -0.1,1.2 -1.1,2.2 -2.3,2.2 -0.1,0 -0.3,0 -0.4,0.1 -0.1,0.1 -0.1,0.2 -0.1,0.3 v 0 0 c 0,0.1 0,0.3 0.1,0.3 0.1,0.1 0.2,0.1 0.4,0.1 v 0 c 0.2,0 0.5,0 0.7,-0.1 1.4,-0.3 2.6,-1.7 2.6,-3.1 v 0 c 0,0 0,-0.1 0,-0.1 0,0 0,0 0,-0.1 -0.1,0.1 -0.1,0 -0.2,-0.1 z"
       id="path42" />
    <polygon
       points="25.5,16.8 "
       id="polygon44" />
    <path
       d="m 21.7,14.1 c 0.1,1.5 1.2,2.8 2.7,3.1 0.2,0 0.4,0.1 0.6,0.1 v 0 c 0.1,0 0.2,0 0.3,-0.1 0.1,-0.1 0.1,-0.2 0.1,-0.3 v 0 0 c 0,-0.1 0,-0.2 -0.1,-0.3 -0.1,-0.1 -0.2,-0.1 -0.3,-0.2 -0.1,0 -0.2,0 -0.4,0 -1.1,-0.1 -2,-1.1 -2.1,-2.2 0,-0.2 0,-0.3 -0.1,-0.4 -0.1,-0.1 -0.2,-0.2 -0.4,-0.2 v 0 c -0.1,0 -0.3,0.1 -0.3,0.2 0,-0.1 0,0.1 0,0.3 v 0 z"
       id="path46" />
    <path
       d="m 24.7,23.8 c -0.1,-0.1 -0.2,-0.1 -0.3,-0.1 -0.1,0 -0.1,0 -0.2,0 -0.7,0.2 -1.3,0.5 -1.8,1.1 -0.5,0.5 -0.8,1.2 -0.8,1.9 v 0 c 0,0.1 0,0.2 0,0.2 0,0 0,0.1 0,0.1 0,0.2 0.2,0.4 0.5,0.4 v 0 c 0.2,0 0.4,-0.2 0.5,-0.4 0,-0.1 0,-0.2 0,-0.2 0.1,-0.8 0.4,-1.4 1,-1.8 0.3,-0.2 0.6,-0.3 0.9,-0.4 0.1,0 0.2,-0.1 0.3,-0.2 0.1,-0.1 0.1,-0.2 0.1,-0.3 0,0 0,-0.1 0,-0.1 0,-0.1 -0.1,-0.1 -0.2,-0.2 z"
       id="path48" />
  </g>
</svg>
