<?xml version="1.0" encoding="UTF-8" standalone="no"?>
<svg
   class="icon icon__round icon__size-normal"
   viewBox="-20 -20 40 40"
   aria-hidden="true"
   version="1.1"
   id="svg28"
   sodipodi:docname="science.svg"
   inkscape:version="1.2.2 (732a01da63, 2022-12-09)"
   xmlns:inkscape="http://www.inkscape.org/namespaces/inkscape"
   xmlns:sodipodi="http://sodipodi.sourceforge.net/DTD/sodipodi-0.dtd"
   xmlns="http://www.w3.org/2000/svg"
   xmlns:svg="http://www.w3.org/2000/svg">
  <defs
     id="defs32" />
  <sodipodi:namedview
     id="namedview30"
     pagecolor="#ffffff"
     bordercolor="#000000"
     borderopacity="0.25"
     inkscape:showpageshadow="2"
     inkscape:pageopacity="0.0"
     inkscape:pagecheckerboard="0"
     inkscape:deskcolor="#d1d1d1"
     showgrid="false"
     inkscape:zoom="7.3981047"
     inkscape:cx="19.937539"
     inkscape:cy="24.736065"
     inkscape:window-width="1920"
     inkscape:window-height="1017"
     inkscape:window-x="-8"
     inkscape:window-y="-8"
     inkscape:window-maximized="1"
     inkscape:current-layer="svg28" />
  <circle
     class="icon__default-circle"
     cx="0"
     cy="0"
     r="19.5"
     vector-effect="non-scaling-stroke"
     style="visibility:inherit;opacity:1"
     id="circle2" />
  <circle
     class="icon__second-circle"
     cx="0"
     cy="0"
     r="19.5"
     vector-effect="non-scaling-stroke"
     id="circle4" />
  <circle
     class="icon__third-circle"
     cx="0"
     cy="0"
     r="19.5"
     vector-effect="non-scaling-stroke"
     id="circle6" />
  <circle
     class="icon__background-circle"
     cx="0"
     cy="0"
     r="19.5"
     vector-effect="non-scaling-stroke"
     id="circle8" />
  <g
     class="icon__content"
     data-svg-origin="20.037497520446777 20.149998664855957"
     style="visibility:inherit;opacity:1"
     transform="translate(-20,-20)"
     id="g14">
    <path
       d="M 30.8,19.5 C 30.7,19.2 30.5,19 30.3,18.8 30.1,18.6 29.9,18.4 29.6,18.3 29.1,18 28.5,17.8 27.9,17.6 27.1,17.3 26.3,17.2 25.4,17 l 0.1,-0.2 c 0.3,-0.7 0.6,-1.5 0.8,-2.2 0.2,-0.6 0.3,-1.2 0.3,-1.8 0,-0.3 0,-0.7 -0.2,-1 C 26.3,11.6 26.3,11.5 26.2,11.4 26.1,11.3 26,11.2 25.8,11.1 25.7,11 25.5,11 25.4,10.9 c -0.1,0 -0.3,-0.1 -0.4,-0.1 -0.3,0 -0.6,0.1 -0.8,0.2 -0.6,0.2 -1.1,0.5 -1.6,0.9 -0.8,0.6 -1.7,1.5 -2.7,2.6 -0.5,-0.5 -1,-1 -1.4,-1.5 -0.6,-0.6 -1.3,-1.1 -2,-1.6 -0.3,-0.2 -0.6,-0.3 -0.9,-0.4 -0.3,-0.1 -0.6,-0.2 -0.8,-0.2 -0.1,0 -0.3,0 -0.4,0.1 -0.1,0 -0.3,0.1 -0.4,0.2 -0.1,0.1 -0.3,0.2 -0.4,0.3 -0.1,0.2 -0.2,0.4 -0.3,0.7 -0.1,0.3 -0.1,0.5 -0.1,0.8 0,0.6 0.1,1.2 0.3,1.8 0.2,0.9 0.5,1.7 0.9,2.5 -0.4,0.1 -0.8,0.1 -1.1,0.2 -0.5,0.1 -1.1,0.3 -1.6,0.5 -0.7,0.3 -1.3,0.6 -1.8,0.9 -0.2,0.2 -0.4,0.4 -0.5,0.6 -0.1,0.2 -0.2,0.5 -0.2,0.7 0,0.2 0,0.3 0.1,0.5 0.1,0.3 0.3,0.5 0.5,0.7 0.2,0.2 0.4,0.4 0.7,0.5 0.5,0.3 1.1,0.5 1.7,0.7 0.8,0.2 1.5,0.4 2.3,0.6 -0.1,0.1 -0.1,0.3 -0.2,0.4 -0.3,0.7 -0.6,1.5 -0.8,2.2 -0.2,0.6 -0.3,1.2 -0.3,1.8 0,0.3 0,0.7 0.2,1 0.1,0.2 0.1,0.3 0.2,0.4 0.1,0.1 0.2,0.2 0.4,0.3 v 0 c 0.1,0.1 0.3,0.1 0.4,0.2 0.1,0 0.3,0.1 0.4,0.1 0.3,0 0.6,-0.1 0.8,-0.2 0.6,-0.2 1.1,-0.5 1.6,-0.9 0.8,-0.6 1.7,-1.5 2.7,-2.6 0.5,0.5 1,1 1.4,1.5 0.6,0.6 1.3,1.1 2,1.6 0.3,0.2 0.6,0.3 0.9,0.4 0.3,0.1 0.6,0.2 0.8,0.2 0.1,0 0.3,0 0.4,-0.1 0.1,0 0.3,-0.1 0.4,-0.2 l -0.3,-0.4 0.3,0.4 c 0.1,-0.1 0.3,-0.2 0.4,-0.3 0.1,-0.2 0.2,-0.4 0.3,-0.7 0.1,-0.3 0.1,-0.5 0.1,-0.8 0,-0.6 -0.1,-1.2 -0.3,-1.8 -0.2,-0.9 -0.5,-1.7 -0.9,-2.6 0.5,-0.1 0.9,-0.2 1.3,-0.3 0.5,-0.1 1.1,-0.3 1.6,-0.5 0.7,-0.3 1.3,-0.6 1.8,-0.9 0.2,-0.2 0.4,-0.4 0.5,-0.6 0.1,-0.2 0.2,-0.5 0.2,-0.8 0.1,-0.1 0.1,-0.3 0,-0.4 z m -8.8,-6 c 0.6,-0.5 1.2,-1 1.8,-1.4 0.2,-0.1 0.5,-0.3 0.7,-0.4 0.2,-0.1 0.3,-0.1 0.5,-0.1 0.1,0 0.1,0 0.2,0 0,0 0.1,0 0.1,0.1 0,0 0.1,0.1 0.1,0.1 0.1,0.1 0.1,0.2 0.1,0.3 0,0.2 0.1,0.4 0.1,0.6 0,0.5 -0.1,1.1 -0.2,1.6 -0.2,0.9 -0.5,1.7 -0.9,2.6 h -0.1 c -0.8,-0.1 -1.8,-0.2 -2.7,-0.2 -0.4,-0.5 -0.8,-1.1 -1.2,-1.5 0.5,-0.8 1,-1.3 1.5,-1.7 z m 0,7.9 c -0.2,0.4 -0.5,0.7 -0.7,1.1 -0.4,0 -0.8,0 -1.3,0 -0.5,0 -1,0 -1.5,0 -0.2,-0.3 -0.5,-0.7 -0.7,-1.1 -0.3,-0.5 -0.6,-0.9 -0.9,-1.4 0.3,-0.5 0.5,-0.9 0.8,-1.4 0.3,-0.4 0.5,-0.8 0.8,-1.2 0.5,0 0.9,0 1.4,0 0.4,0 0.8,0 1.2,0 0.3,0.4 0.5,0.8 0.8,1.2 0.3,0.5 0.6,0.9 0.8,1.4 -0.1,0.5 -0.4,0.9 -0.7,1.4 z m 1.4,-0.5 c 0.2,0.4 0.5,0.9 0.7,1.3 -0.5,0.1 -1,0.1 -1.6,0.2 0.1,-0.2 0.2,-0.3 0.3,-0.5 0.2,-0.3 0.4,-0.7 0.6,-1 z m -2.8,2.5 c -0.2,0.3 -0.5,0.6 -0.7,0.9 -0.2,-0.3 -0.5,-0.6 -0.7,-0.9 0.3,0 0.5,0 0.8,0 0.2,0 0.4,0 0.6,0 z m -3.3,-1 c -0.5,0 -0.9,-0.1 -1.3,-0.1 h -0.2 c 0.2,-0.4 0.4,-0.8 0.7,-1.3 0.2,0.3 0.4,0.6 0.6,0.9 0,0.1 0.1,0.3 0.2,0.5 z m -0.9,-3.3 c -0.3,-0.5 -0.5,-0.9 -0.7,-1.4 v 0 c 0.5,-0.1 1.1,-0.1 1.7,-0.2 -0.1,0.2 -0.3,0.4 -0.4,0.6 -0.2,0.3 -0.4,0.7 -0.6,1 z m 2.9,-2.6 c 0.2,-0.3 0.4,-0.5 0.6,-0.8 0.2,0.3 0.4,0.5 0.6,0.8 -0.2,0 -0.3,0 -0.5,0 -0.2,0 -0.5,0 -0.7,0 z m 3.5,1.6 c -0.1,-0.2 -0.3,-0.4 -0.4,-0.6 0.6,0 1.1,0.1 1.6,0.2 h 0.1 c -0.2,0.5 -0.5,0.9 -0.7,1.4 -0.2,-0.3 -0.4,-0.7 -0.6,-1 z m -7.7,-1.8 c -0.3,-0.7 -0.5,-1.4 -0.7,-2.1 -0.1,-0.5 -0.2,-1.1 -0.2,-1.6 0,-0.2 0,-0.5 0.1,-0.7 0,-0.1 0.1,-0.1 0.1,-0.2 0,0 0.1,-0.1 0.1,-0.1 0,0 0.1,0 0.1,-0.1 0.1,0 0.1,0 0.2,0 0.2,0 0.4,0 0.5,0.1 0.5,0.2 0.9,0.5 1.4,0.8 0.8,0.6 1.7,1.4 2.6,2.5 V 15 c -0.4,0.5 -0.8,1 -1.2,1.6 -0.8,0 -1.5,0.1 -2.2,0.2 -0.2,0 -0.4,0 -0.6,0.1 -0.1,-0.2 -0.1,-0.4 -0.2,-0.6 z m -1.6,5.5 C 13,21.7 12.5,21.5 12,21.4 11.3,21.2 10.8,20.9 10.5,20.6 10.4,20.5 10.3,20.4 10.2,20.2 10.1,20.1 10,20 10,19.9 c 0,-0.1 0,-0.1 0,-0.1 0.1,-0.1 0.1,-0.3 0.3,-0.4 0.2,-0.1 0.3,-0.3 0.5,-0.4 0.5,-0.3 1,-0.5 1.5,-0.6 0.8,-0.2 1.6,-0.4 2.4,-0.6 v 0.1 c 0.3,0.7 0.7,1.4 1.1,2.1 -0.4,0.7 -0.8,1.4 -1.1,2.1 -0.4,-0.1 -0.8,-0.2 -1.2,-0.3 z m 4.3,4.7 c -0.6,0.5 -1.2,1 -1.8,1.4 -0.2,0.1 -0.5,0.3 -0.7,0.4 -0.2,0.1 -0.3,0.1 -0.5,0.1 -0.1,0 -0.1,0 -0.2,0 0,0 -0.1,0 -0.1,-0.1 l -0.3,0.4 0.3,-0.4 c 0,0 -0.1,-0.1 -0.1,-0.1 -0.1,-0.1 -0.1,-0.2 -0.1,-0.3 0,-0.2 -0.1,-0.4 -0.1,-0.6 0,-0.5 0.1,-1.1 0.2,-1.6 0.2,-0.9 0.6,-1.8 1,-2.7 h 0.3 c 0.8,0.1 1.6,0.2 2.4,0.2 0.4,0.6 0.9,1.1 1.3,1.7 -0.6,0.7 -1.1,1.2 -1.6,1.6 z m 6.9,-2.8 c 0.3,0.7 0.5,1.4 0.7,2.1 0.1,0.5 0.2,1.1 0.2,1.6 0,0.2 0,0.5 -0.1,0.7 0,0.1 -0.1,0.1 -0.1,0.2 0,0 -0.1,0.1 -0.1,0.1 0,0 -0.1,0 -0.1,0.1 -0.1,0 -0.1,0 -0.2,0 -0.2,0 -0.4,0 -0.5,-0.1 C 24,28.2 23.6,27.9 23.1,27.6 22.3,27 21.4,26.2 20.5,25.1 V 25 c 0.4,-0.5 0.9,-1.1 1.3,-1.7 0.8,0 1.6,-0.1 2.3,-0.2 0.1,0 0.2,0 0.3,0 0.1,0.2 0.2,0.4 0.3,0.6 z m 5.2,-3.6 c -0.1,0.1 -0.1,0.3 -0.3,0.4 -0.2,0.1 -0.3,0.3 -0.5,0.4 -0.5,0.3 -1,0.5 -1.5,0.6 -0.9,0.3 -1.8,0.5 -2.6,0.6 0,0 0,0 0,0 -0.3,-0.7 -0.7,-1.4 -1.1,-2.1 0.4,-0.8 0.8,-1.5 1.1,-2.2 0.5,0.1 1,0.2 1.5,0.3 0.5,0.1 1,0.3 1.5,0.4 0.7,0.2 1.2,0.5 1.5,0.8 0.1,0.1 0.2,0.2 0.3,0.4 0.1,0.1 0.1,0.2 0.1,0.3 0.1,0 0.1,0.1 0,0.1 z"
       id="path10" />
    <circle
       cx="20"
       cy="19.9"
       r="1.3"
       id="circle12" />
  </g>
  <g
     class="icon__content icon__content-shine"
     data-svg-origin="20.037497520446777 20.149998664855957"
     style="visibility:inherit;opacity:1"
     transform="translate(-20,-20)"
     id="g20">
    <path
       d="M 30.8,19.5 C 30.7,19.2 30.5,19 30.3,18.8 30.1,18.6 29.9,18.4 29.6,18.3 29.1,18 28.5,17.8 27.9,17.6 27.1,17.3 26.3,17.2 25.4,17 l 0.1,-0.2 c 0.3,-0.7 0.6,-1.5 0.8,-2.2 0.2,-0.6 0.3,-1.2 0.3,-1.8 0,-0.3 0,-0.7 -0.2,-1 C 26.3,11.6 26.3,11.5 26.2,11.4 26.1,11.3 26,11.2 25.8,11.1 25.7,11 25.5,11 25.4,10.9 c -0.1,0 -0.3,-0.1 -0.4,-0.1 -0.3,0 -0.6,0.1 -0.8,0.2 -0.6,0.2 -1.1,0.5 -1.6,0.9 -0.8,0.6 -1.7,1.5 -2.7,2.6 -0.5,-0.5 -1,-1 -1.4,-1.5 -0.6,-0.6 -1.3,-1.1 -2,-1.6 -0.3,-0.2 -0.6,-0.3 -0.9,-0.4 -0.3,-0.1 -0.6,-0.2 -0.8,-0.2 -0.1,0 -0.3,0 -0.4,0.1 -0.1,0 -0.3,0.1 -0.4,0.2 -0.1,0.1 -0.3,0.2 -0.4,0.3 -0.1,0.2 -0.2,0.4 -0.3,0.7 -0.1,0.3 -0.1,0.5 -0.1,0.8 0,0.6 0.1,1.2 0.3,1.8 0.2,0.9 0.5,1.7 0.9,2.5 -0.4,0.1 -0.8,0.1 -1.1,0.2 -0.5,0.1 -1.1,0.3 -1.6,0.5 -0.7,0.3 -1.3,0.6 -1.8,0.9 -0.2,0.2 -0.4,0.4 -0.5,0.6 -0.1,0.2 -0.2,0.5 -0.2,0.7 0,0.2 0,0.3 0.1,0.5 0.1,0.3 0.3,0.5 0.5,0.7 0.2,0.2 0.4,0.4 0.7,0.5 0.5,0.3 1.1,0.5 1.7,0.7 0.8,0.2 1.5,0.4 2.3,0.6 -0.1,0.1 -0.1,0.3 -0.2,0.4 -0.3,0.7 -0.6,1.5 -0.8,2.2 -0.2,0.6 -0.3,1.2 -0.3,1.8 0,0.3 0,0.7 0.2,1 0.1,0.2 0.1,0.3 0.2,0.4 0.1,0.1 0.2,0.2 0.4,0.3 v 0 c 0.1,0.1 0.3,0.1 0.4,0.2 0.1,0 0.3,0.1 0.4,0.1 0.3,0 0.6,-0.1 0.8,-0.2 0.6,-0.2 1.1,-0.5 1.6,-0.9 0.8,-0.6 1.7,-1.5 2.7,-2.6 0.5,0.5 1,1 1.4,1.5 0.6,0.6 1.3,1.1 2,1.6 0.3,0.2 0.6,0.3 0.9,0.4 0.3,0.1 0.6,0.2 0.8,0.2 0.1,0 0.3,0 0.4,-0.1 0.1,0 0.3,-0.1 0.4,-0.2 l -0.3,-0.4 0.3,0.4 c 0.1,-0.1 0.3,-0.2 0.4,-0.3 0.1,-0.2 0.2,-0.4 0.3,-0.7 0.1,-0.3 0.1,-0.5 0.1,-0.8 0,-0.6 -0.1,-1.2 -0.3,-1.8 -0.2,-0.9 -0.5,-1.7 -0.9,-2.6 0.5,-0.1 0.9,-0.2 1.3,-0.3 0.5,-0.1 1.1,-0.3 1.6,-0.5 0.7,-0.3 1.3,-0.6 1.8,-0.9 0.2,-0.2 0.4,-0.4 0.5,-0.6 0.1,-0.2 0.2,-0.5 0.2,-0.8 0.1,-0.1 0.1,-0.3 0,-0.4 z m -8.8,-6 c 0.6,-0.5 1.2,-1 1.8,-1.4 0.2,-0.1 0.5,-0.3 0.7,-0.4 0.2,-0.1 0.3,-0.1 0.5,-0.1 0.1,0 0.1,0 0.2,0 0,0 0.1,0 0.1,0.1 0,0 0.1,0.1 0.1,0.1 0.1,0.1 0.1,0.2 0.1,0.3 0,0.2 0.1,0.4 0.1,0.6 0,0.5 -0.1,1.1 -0.2,1.6 -0.2,0.9 -0.5,1.7 -0.9,2.6 h -0.1 c -0.8,-0.1 -1.8,-0.2 -2.7,-0.2 -0.4,-0.5 -0.8,-1.1 -1.2,-1.5 0.5,-0.8 1,-1.3 1.5,-1.7 z m 0,7.9 c -0.2,0.4 -0.5,0.7 -0.7,1.1 -0.4,0 -0.8,0 -1.3,0 -0.5,0 -1,0 -1.5,0 -0.2,-0.3 -0.5,-0.7 -0.7,-1.1 -0.3,-0.5 -0.6,-0.9 -0.9,-1.4 0.3,-0.5 0.5,-0.9 0.8,-1.4 0.3,-0.4 0.5,-0.8 0.8,-1.2 0.5,0 0.9,0 1.4,0 0.4,0 0.8,0 1.2,0 0.3,0.4 0.5,0.8 0.8,1.2 0.3,0.5 0.6,0.9 0.8,1.4 -0.1,0.5 -0.4,0.9 -0.7,1.4 z m 1.4,-0.5 c 0.2,0.4 0.5,0.9 0.7,1.3 -0.5,0.1 -1,0.1 -1.6,0.2 0.1,-0.2 0.2,-0.3 0.3,-0.5 0.2,-0.3 0.4,-0.7 0.6,-1 z m -2.8,2.5 c -0.2,0.3 -0.5,0.6 -0.7,0.9 -0.2,-0.3 -0.5,-0.6 -0.7,-0.9 0.3,0 0.5,0 0.8,0 0.2,0 0.4,0 0.6,0 z m -3.3,-1 c -0.5,0 -0.9,-0.1 -1.3,-0.1 h -0.2 c 0.2,-0.4 0.4,-0.8 0.7,-1.3 0.2,0.3 0.4,0.6 0.6,0.9 0,0.1 0.1,0.3 0.2,0.5 z m -0.9,-3.3 c -0.3,-0.5 -0.5,-0.9 -0.7,-1.4 v 0 c 0.5,-0.1 1.1,-0.1 1.7,-0.2 -0.1,0.2 -0.3,0.4 -0.4,0.6 -0.2,0.3 -0.4,0.7 -0.6,1 z m 2.9,-2.6 c 0.2,-0.3 0.4,-0.5 0.6,-0.8 0.2,0.3 0.4,0.5 0.6,0.8 -0.2,0 -0.3,0 -0.5,0 -0.2,0 -0.5,0 -0.7,0 z m 3.5,1.6 c -0.1,-0.2 -0.3,-0.4 -0.4,-0.6 0.6,0 1.1,0.1 1.6,0.2 h 0.1 c -0.2,0.5 -0.5,0.9 -0.7,1.4 -0.2,-0.3 -0.4,-0.7 -0.6,-1 z m -7.7,-1.8 c -0.3,-0.7 -0.5,-1.4 -0.7,-2.1 -0.1,-0.5 -0.2,-1.1 -0.2,-1.6 0,-0.2 0,-0.5 0.1,-0.7 0,-0.1 0.1,-0.1 0.1,-0.2 0,0 0.1,-0.1 0.1,-0.1 0,0 0.1,0 0.1,-0.1 0.1,0 0.1,0 0.2,0 0.2,0 0.4,0 0.5,0.1 0.5,0.2 0.9,0.5 1.4,0.8 0.8,0.6 1.7,1.4 2.6,2.5 V 15 c -0.4,0.5 -0.8,1 -1.2,1.6 -0.8,0 -1.5,0.1 -2.2,0.2 -0.2,0 -0.4,0 -0.6,0.1 -0.1,-0.2 -0.1,-0.4 -0.2,-0.6 z m -1.6,5.5 C 13,21.7 12.5,21.5 12,21.4 11.3,21.2 10.8,20.9 10.5,20.6 10.4,20.5 10.3,20.4 10.2,20.2 10.1,20.1 10,20 10,19.9 c 0,-0.1 0,-0.1 0,-0.1 0.1,-0.1 0.1,-0.3 0.3,-0.4 0.2,-0.1 0.3,-0.3 0.5,-0.4 0.5,-0.3 1,-0.5 1.5,-0.6 0.8,-0.2 1.6,-0.4 2.4,-0.6 v 0.1 c 0.3,0.7 0.7,1.4 1.1,2.1 -0.4,0.7 -0.8,1.4 -1.1,2.1 -0.4,-0.1 -0.8,-0.2 -1.2,-0.3 z m 4.3,4.7 c -0.6,0.5 -1.2,1 -1.8,1.4 -0.2,0.1 -0.5,0.3 -0.7,0.4 -0.2,0.1 -0.3,0.1 -0.5,0.1 -0.1,0 -0.1,0 -0.2,0 0,0 -0.1,0 -0.1,-0.1 l -0.3,0.4 0.3,-0.4 c 0,0 -0.1,-0.1 -0.1,-0.1 -0.1,-0.1 -0.1,-0.2 -0.1,-0.3 0,-0.2 -0.1,-0.4 -0.1,-0.6 0,-0.5 0.1,-1.1 0.2,-1.6 0.2,-0.9 0.6,-1.8 1,-2.7 h 0.3 c 0.8,0.1 1.6,0.2 2.4,0.2 0.4,0.6 0.9,1.1 1.3,1.7 -0.6,0.7 -1.1,1.2 -1.6,1.6 z m 6.9,-2.8 c 0.3,0.7 0.5,1.4 0.7,2.1 0.1,0.5 0.2,1.1 0.2,1.6 0,0.2 0,0.5 -0.1,0.7 0,0.1 -0.1,0.1 -0.1,0.2 0,0 -0.1,0.1 -0.1,0.1 0,0 -0.1,0 -0.1,0.1 -0.1,0 -0.1,0 -0.2,0 -0.2,0 -0.4,0 -0.5,-0.1 C 24,28.2 23.6,27.9 23.1,27.6 22.3,27 21.4,26.2 20.5,25.1 V 25 c 0.4,-0.5 0.9,-1.1 1.3,-1.7 0.8,0 1.6,-0.1 2.3,-0.2 0.1,0 0.2,0 0.3,0 0.1,0.2 0.2,0.4 0.3,0.6 z m 5.2,-3.6 c -0.1,0.1 -0.1,0.3 -0.3,0.4 -0.2,0.1 -0.3,0.3 -0.5,0.4 -0.5,0.3 -1,0.5 -1.5,0.6 -0.9,0.3 -1.8,0.5 -2.6,0.6 0,0 0,0 0,0 -0.3,-0.7 -0.7,-1.4 -1.1,-2.1 0.4,-0.8 0.8,-1.5 1.1,-2.2 0.5,0.1 1,0.2 1.5,0.3 0.5,0.1 1,0.3 1.5,0.4 0.7,0.2 1.2,0.5 1.5,0.8 0.1,0.1 0.2,0.2 0.3,0.4 0.1,0.1 0.1,0.2 0.1,0.3 0.1,0 0.1,0.1 0,0.1 z"
       id="path16" />
    <circle
       cx="20"
       cy="19.9"
       r="1.3"
       id="circle18" />
  </g>
  <g
     class="icon__content icon__content-shine-permanent"
     data-svg-origin="20.037497520446777 20.149998664855957"
     style="visibility:inherit;opacity:1"
     transform="translate(-20,-20)"
     id="g26">
    <path
       d="M 30.8,19.5 C 30.7,19.2 30.5,19 30.3,18.8 30.1,18.6 29.9,18.4 29.6,18.3 29.1,18 28.5,17.8 27.9,17.6 27.1,17.3 26.3,17.2 25.4,17 l 0.1,-0.2 c 0.3,-0.7 0.6,-1.5 0.8,-2.2 0.2,-0.6 0.3,-1.2 0.3,-1.8 0,-0.3 0,-0.7 -0.2,-1 C 26.3,11.6 26.3,11.5 26.2,11.4 26.1,11.3 26,11.2 25.8,11.1 25.7,11 25.5,11 25.4,10.9 c -0.1,0 -0.3,-0.1 -0.4,-0.1 -0.3,0 -0.6,0.1 -0.8,0.2 -0.6,0.2 -1.1,0.5 -1.6,0.9 -0.8,0.6 -1.7,1.5 -2.7,2.6 -0.5,-0.5 -1,-1 -1.4,-1.5 -0.6,-0.6 -1.3,-1.1 -2,-1.6 -0.3,-0.2 -0.6,-0.3 -0.9,-0.4 -0.3,-0.1 -0.6,-0.2 -0.8,-0.2 -0.1,0 -0.3,0 -0.4,0.1 -0.1,0 -0.3,0.1 -0.4,0.2 -0.1,0.1 -0.3,0.2 -0.4,0.3 -0.1,0.2 -0.2,0.4 -0.3,0.7 -0.1,0.3 -0.1,0.5 -0.1,0.8 0,0.6 0.1,1.2 0.3,1.8 0.2,0.9 0.5,1.7 0.9,2.5 -0.4,0.1 -0.8,0.1 -1.1,0.2 -0.5,0.1 -1.1,0.3 -1.6,0.5 -0.7,0.3 -1.3,0.6 -1.8,0.9 -0.2,0.2 -0.4,0.4 -0.5,0.6 -0.1,0.2 -0.2,0.5 -0.2,0.7 0,0.2 0,0.3 0.1,0.5 0.1,0.3 0.3,0.5 0.5,0.7 0.2,0.2 0.4,0.4 0.7,0.5 0.5,0.3 1.1,0.5 1.7,0.7 0.8,0.2 1.5,0.4 2.3,0.6 -0.1,0.1 -0.1,0.3 -0.2,0.4 -0.3,0.7 -0.6,1.5 -0.8,2.2 -0.2,0.6 -0.3,1.2 -0.3,1.8 0,0.3 0,0.7 0.2,1 0.1,0.2 0.1,0.3 0.2,0.4 0.1,0.1 0.2,0.2 0.4,0.3 v 0 c 0.1,0.1 0.3,0.1 0.4,0.2 0.1,0 0.3,0.1 0.4,0.1 0.3,0 0.6,-0.1 0.8,-0.2 0.6,-0.2 1.1,-0.5 1.6,-0.9 0.8,-0.6 1.7,-1.5 2.7,-2.6 0.5,0.5 1,1 1.4,1.5 0.6,0.6 1.3,1.1 2,1.6 0.3,0.2 0.6,0.3 0.9,0.4 0.3,0.1 0.6,0.2 0.8,0.2 0.1,0 0.3,0 0.4,-0.1 0.1,0 0.3,-0.1 0.4,-0.2 l -0.3,-0.4 0.3,0.4 c 0.1,-0.1 0.3,-0.2 0.4,-0.3 0.1,-0.2 0.2,-0.4 0.3,-0.7 0.1,-0.3 0.1,-0.5 0.1,-0.8 0,-0.6 -0.1,-1.2 -0.3,-1.8 -0.2,-0.9 -0.5,-1.7 -0.9,-2.6 0.5,-0.1 0.9,-0.2 1.3,-0.3 0.5,-0.1 1.1,-0.3 1.6,-0.5 0.7,-0.3 1.3,-0.6 1.8,-0.9 0.2,-0.2 0.4,-0.4 0.5,-0.6 0.1,-0.2 0.2,-0.5 0.2,-0.8 0.1,-0.1 0.1,-0.3 0,-0.4 z m -8.8,-6 c 0.6,-0.5 1.2,-1 1.8,-1.4 0.2,-0.1 0.5,-0.3 0.7,-0.4 0.2,-0.1 0.3,-0.1 0.5,-0.1 0.1,0 0.1,0 0.2,0 0,0 0.1,0 0.1,0.1 0,0 0.1,0.1 0.1,0.1 0.1,0.1 0.1,0.2 0.1,0.3 0,0.2 0.1,0.4 0.1,0.6 0,0.5 -0.1,1.1 -0.2,1.6 -0.2,0.9 -0.5,1.7 -0.9,2.6 h -0.1 c -0.8,-0.1 -1.8,-0.2 -2.7,-0.2 -0.4,-0.5 -0.8,-1.1 -1.2,-1.5 0.5,-0.8 1,-1.3 1.5,-1.7 z m 0,7.9 c -0.2,0.4 -0.5,0.7 -0.7,1.1 -0.4,0 -0.8,0 -1.3,0 -0.5,0 -1,0 -1.5,0 -0.2,-0.3 -0.5,-0.7 -0.7,-1.1 -0.3,-0.5 -0.6,-0.9 -0.9,-1.4 0.3,-0.5 0.5,-0.9 0.8,-1.4 0.3,-0.4 0.5,-0.8 0.8,-1.2 0.5,0 0.9,0 1.4,0 0.4,0 0.8,0 1.2,0 0.3,0.4 0.5,0.8 0.8,1.2 0.3,0.5 0.6,0.9 0.8,1.4 -0.1,0.5 -0.4,0.9 -0.7,1.4 z m 1.4,-0.5 c 0.2,0.4 0.5,0.9 0.7,1.3 -0.5,0.1 -1,0.1 -1.6,0.2 0.1,-0.2 0.2,-0.3 0.3,-0.5 0.2,-0.3 0.4,-0.7 0.6,-1 z m -2.8,2.5 c -0.2,0.3 -0.5,0.6 -0.7,0.9 -0.2,-0.3 -0.5,-0.6 -0.7,-0.9 0.3,0 0.5,0 0.8,0 0.2,0 0.4,0 0.6,0 z m -3.3,-1 c -0.5,0 -0.9,-0.1 -1.3,-0.1 h -0.2 c 0.2,-0.4 0.4,-0.8 0.7,-1.3 0.2,0.3 0.4,0.6 0.6,0.9 0,0.1 0.1,0.3 0.2,0.5 z m -0.9,-3.3 c -0.3,-0.5 -0.5,-0.9 -0.7,-1.4 v 0 c 0.5,-0.1 1.1,-0.1 1.7,-0.2 -0.1,0.2 -0.3,0.4 -0.4,0.6 -0.2,0.3 -0.4,0.7 -0.6,1 z m 2.9,-2.6 c 0.2,-0.3 0.4,-0.5 0.6,-0.8 0.2,0.3 0.4,0.5 0.6,0.8 -0.2,0 -0.3,0 -0.5,0 -0.2,0 -0.5,0 -0.7,0 z m 3.5,1.6 c -0.1,-0.2 -0.3,-0.4 -0.4,-0.6 0.6,0 1.1,0.1 1.6,0.2 h 0.1 c -0.2,0.5 -0.5,0.9 -0.7,1.4 -0.2,-0.3 -0.4,-0.7 -0.6,-1 z m -7.7,-1.8 c -0.3,-0.7 -0.5,-1.4 -0.7,-2.1 -0.1,-0.5 -0.2,-1.1 -0.2,-1.6 0,-0.2 0,-0.5 0.1,-0.7 0,-0.1 0.1,-0.1 0.1,-0.2 0,0 0.1,-0.1 0.1,-0.1 0,0 0.1,0 0.1,-0.1 0.1,0 0.1,0 0.2,0 0.2,0 0.4,0 0.5,0.1 0.5,0.2 0.9,0.5 1.4,0.8 0.8,0.6 1.7,1.4 2.6,2.5 V 15 c -0.4,0.5 -0.8,1 -1.2,1.6 -0.8,0 -1.5,0.1 -2.2,0.2 -0.2,0 -0.4,0 -0.6,0.1 -0.1,-0.2 -0.1,-0.4 -0.2,-0.6 z m -1.6,5.5 C 13,21.7 12.5,21.5 12,21.4 11.3,21.2 10.8,20.9 10.5,20.6 10.4,20.5 10.3,20.4 10.2,20.2 10.1,20.1 10,20 10,19.9 c 0,-0.1 0,-0.1 0,-0.1 0.1,-0.1 0.1,-0.3 0.3,-0.4 0.2,-0.1 0.3,-0.3 0.5,-0.4 0.5,-0.3 1,-0.5 1.5,-0.6 0.8,-0.2 1.6,-0.4 2.4,-0.6 v 0.1 c 0.3,0.7 0.7,1.4 1.1,2.1 -0.4,0.7 -0.8,1.4 -1.1,2.1 -0.4,-0.1 -0.8,-0.2 -1.2,-0.3 z m 4.3,4.7 c -0.6,0.5 -1.2,1 -1.8,1.4 -0.2,0.1 -0.5,0.3 -0.7,0.4 -0.2,0.1 -0.3,0.1 -0.5,0.1 -0.1,0 -0.1,0 -0.2,0 0,0 -0.1,0 -0.1,-0.1 l -0.3,0.4 0.3,-0.4 c 0,0 -0.1,-0.1 -0.1,-0.1 -0.1,-0.1 -0.1,-0.2 -0.1,-0.3 0,-0.2 -0.1,-0.4 -0.1,-0.6 0,-0.5 0.1,-1.1 0.2,-1.6 0.2,-0.9 0.6,-1.8 1,-2.7 h 0.3 c 0.8,0.1 1.6,0.2 2.4,0.2 0.4,0.6 0.9,1.1 1.3,1.7 -0.6,0.7 -1.1,1.2 -1.6,1.6 z m 6.9,-2.8 c 0.3,0.7 0.5,1.4 0.7,2.1 0.1,0.5 0.2,1.1 0.2,1.6 0,0.2 0,0.5 -0.1,0.7 0,0.1 -0.1,0.1 -0.1,0.2 0,0 -0.1,0.1 -0.1,0.1 0,0 -0.1,0 -0.1,0.1 -0.1,0 -0.1,0 -0.2,0 -0.2,0 -0.4,0 -0.5,-0.1 C 24,28.2 23.6,27.9 23.1,27.6 22.3,27 21.4,26.2 20.5,25.1 V 25 c 0.4,-0.5 0.9,-1.1 1.3,-1.7 0.8,0 1.6,-0.1 2.3,-0.2 0.1,0 0.2,0 0.3,0 0.1,0.2 0.2,0.4 0.3,0.6 z m 5.2,-3.6 c -0.1,0.1 -0.1,0.3 -0.3,0.4 -0.2,0.1 -0.3,0.3 -0.5,0.4 -0.5,0.3 -1,0.5 -1.5,0.6 -0.9,0.3 -1.8,0.5 -2.6,0.6 0,0 0,0 0,0 -0.3,-0.7 -0.7,-1.4 -1.1,-2.1 0.4,-0.8 0.8,-1.5 1.1,-2.2 0.5,0.1 1,0.2 1.5,0.3 0.5,0.1 1,0.3 1.5,0.4 0.7,0.2 1.2,0.5 1.5,0.8 0.1,0.1 0.2,0.2 0.3,0.4 0.1,0.1 0.1,0.2 0.1,0.3 0.1,0 0.1,0.1 0,0.1 z"
       id="path22" />
    <circle
       cx="20"
       cy="19.9"
       r="1.3"
       id="circle24" />
  </g>
</svg>
